<svg xmlns="http://www.w3.org/2000/svg" xmlns:xlink="http://www.w3.org/1999/xlink" width="290.769" height="65.889" viewBox="0 0 290.769 65.889">
  <defs>
    <filter id="CENTURY" x="0" y="0" width="290.769" height="65.889" filterUnits="userSpaceOnUse">
      <feOffset dy="2" input="SourceAlpha"/>
      <feGaussianBlur stdDeviation="6" result="blur"/>
      <feFlood flood-opacity="0.541"/>
      <feComposite operator="in" in2="blur"/>
      <feComposite in="SourceGraphic"/>
    </filter>
  </defs>
  <g transform="matrix(1, 0, 0, 1, 0, 0)" filter="url(#CENTURY)">
    <path id="CENTURY-2" data-name="CENTURY" d="M20.74.581a30.378,30.378,0,0,0,12.953-2.5V-8.528a15.56,15.56,0,0,1-5.225,2.583A23.04,23.04,0,0,1,21.9-5a21.19,21.19,0,0,1-6.947-1.061,10.853,10.853,0,0,1-4.845-3.2,7.483,7.483,0,0,1-1.822-5.045C8.208-20.08,14.094-23.8,21.4-23.7a20.935,20.935,0,0,1,6.006.841,14.739,14.739,0,0,1,4.6,2.242l.541-6.146a22.242,22.242,0,0,0-5.345-1.822,30.618,30.618,0,0,0-6.586-.681c-10.45,0-18.778,5.365-18.778,14.955A13.17,13.17,0,0,0,5.505-4.9C8.989-1.361,14.474.581,20.74.581ZM67.286,0l1.181-6.526c-1.3.721-3.383,1.081-6.266,1.081H45.5v-6.286H58.717a27.2,27.2,0,0,1,4.3.26V-17.3a28.633,28.633,0,0,1-4.3.24H45.5v-6.186H61.9c2.7,0,4.564.24,5.585.741l-1.021-6.206H38.377a25.48,25.48,0,0,1,.781,6.887V-6.887A24.01,24.01,0,0,1,38.377,0ZM81.419,0A23.263,23.263,0,0,1,80.9-3.263a40.492,40.492,0,0,1-.22-4.084V-20.78h.5L101.1,0h5.866V-21.821a25.574,25.574,0,0,1,.741-6.887H99.837a25.93,25.93,0,0,1,.741,6.767V-8.568h-.541L80.979-28.708H73.552a24.01,24.01,0,0,1,.781,6.887V-6.887A25.48,25.48,0,0,1,73.552,0Zm50.289,0a24.5,24.5,0,0,1-.741-6.887V-23.123h7.107a18.032,18.032,0,0,1,5.565.7l-1.261-6.286H113.13l-1.261,6.286a17.477,17.477,0,0,1,5.585-.7h7.127V-6.887A25.979,25.979,0,0,1,123.841,0ZM163.7.581q7.357,0,11.411-3.483t4.044-9.649v-9.269a25.909,25.909,0,0,1,.721-6.887h-7.868a25.984,25.984,0,0,1,.741,6.987v8.228a7.981,7.981,0,0,1-2.482,6.166A9.3,9.3,0,0,1,163.7-5a9.236,9.236,0,0,1-6.546-2.3,8.025,8.025,0,0,1-2.482-6.186v-8.228a29.727,29.727,0,0,1,.7-6.987h-7.828a25.909,25.909,0,0,1,.721,6.887v9.269q0,6.246,4.1,9.689Q156.453.591,163.7.581Zm52.231.04a6.363,6.363,0,0,0,4.985-2.142l-.28-7.087c-.8,1.922-1.842,2.863-3.924,2.863-1.882,0-2.923-1.341-3.944-2.863a12.887,12.887,0,0,0-2.8-2.943,9.308,9.308,0,0,0-5.405-1.441h-.32v-.34h2.5a13.443,13.443,0,0,0,8.008-2.2,6.679,6.679,0,0,0,3.063-5.666,6.2,6.2,0,0,0-3.183-5.545,16.067,16.067,0,0,0-8.468-1.962H186.322a25.574,25.574,0,0,1,.741,6.887V-6.887A25.979,25.979,0,0,1,186.322,0h7.868a23.265,23.265,0,0,1-.741-6.606v-4.264a24.243,24.243,0,0,1,5.385-.36,9.693,9.693,0,0,1,5.686,1.5A9.847,9.847,0,0,1,207.3-6.286a29.219,29.219,0,0,0,2.062,3.824C210.525-.7,212.427.621,215.931.621ZM193.449-23.163H205.5a8.207,8.207,0,0,1,4.3.981,3.056,3.056,0,0,1,1.6,2.7c0,2.342-2.362,3.7-6.186,3.7H193.449ZM242.4-.04a24.1,24.1,0,0,1-.661-5.986v-4.765l10.13-12.372a52.29,52.29,0,0,1,4.745-5.545h-8.568c-.02.04-.12.22-.3.561-.42.761-.36.661-.781,1.4-.2.34-.38.621-.521.841-.3.46-.8,1.2-1.3,1.842l-6.446,7.988h-.36l-6.446-7.988a44.167,44.167,0,0,1-2.863-4.645h-8.608a47.011,47.011,0,0,1,4.8,5.545l10.13,12.332v4.765a24.323,24.323,0,0,1-.661,6.026Z" transform="translate(16.16 45.27)" fill="#f9fdfe"/>
  </g>
</svg>
